<?xml version="1.0" encoding="UTF-8"?>
<svg width="508px" height="508px" viewBox="0 0 508 508" version="1.1" xmlns="http://www.w3.org/2000/svg" xmlns:xlink="http://www.w3.org/1999/xlink">
    <!-- Generator: Sketch 47.1 (45422) - http://www.bohemiancoding.com/sketch -->
    <title>checked (1)</title>
    <desc>Created with Sketch.</desc>
    <defs></defs>
    <g id="Page-1" stroke="none" stroke-width="1" fill="none" fill-rule="evenodd">
        <g id="checked-(1)" fill-rule="nonzero">
            <circle id="Oval" fill="#A9A9A9" cx="253.6" cy="253.6" r="253.6"></circle>
            <path d="M188.8,368 L319.2,498.4 C427.2,469.6 507.2,371.2 507.2,253.6 C507.2,251.2 507.2,248.8 507.2,246.4 L404.8,152 L188.8,368 Z" id="Shape" fill="#989B9A"></path>
            <g id="Group" transform="translate(85.000000, 125.000000)" fill="#FFFFFF">
                <path d="M175,185.4 C186.2,196.6 186.2,215.8 175,227 L151.8,250.2 C140.6,261.4 121.4,261.4 110.2,250.2 L8.6,147.8 C-2.6,136.6 -2.6,117.4 8.6,106.2 L31.8,83 C43,71.8 62.2,71.8 73.4,83 L175,185.4 Z" id="Shape"></path>
                <path d="M263.8,8.6 C275,-2.6 294.2,-2.6 305.4,8.6 L328.6,31.8 C339.8,43 339.8,62.2 328.6,73.4 L152.6,248.6 C141.4,259.8 122.2,259.8 111,248.6 L87.8,225.4 C76.6,214.2 76.6,195 87.8,183.8 L263.8,8.6 Z" id="Shape"></path>
            </g>
        </g>
    </g>
</svg>