<?xml version="1.0" encoding="utf-8"?>
<!-- Generator: Adobe Illustrator 21.0.0, SVG Export Plug-In . SVG Version: 6.00 Build 0)  -->
<svg version="1.1" id="Laag_2" xmlns="http://www.w3.org/2000/svg" xmlns:xlink="http://www.w3.org/1999/xlink" x="0px" y="0px"
	 viewBox="0 0 612 612" style="enable-background:new 0 0 612 612;" xml:space="preserve">
<g>
	<path d="M587.7,354.1c-6.3,0-12.6-2.4-17.3-7.2L303.1,77.2L41.7,340.5c-9.5,9.6-25,9.6-34.5,0.1c-9.6-9.5-9.6-25-0.1-34.5
		L285.7,25.3c4.6-4.6,10.8-7.2,17.3-7.2l0,0c6.5,0,12.8,2.6,17.3,7.2l284.6,287.2c9.5,9.6,9.4,25-0.2,34.5
		C600.1,351.7,593.9,354.1,587.7,354.1z"/>
	<path d="M497.6,593.9H343c-13.5,0-24.4-10.9-24.4-24.4v-89.2h-42.7v89.2c0,13.5-10.9,24.4-24.4,24.4H100
		c-13.5,0-24.4-10.9-24.4-24.4V329.7c0-13.5,10.9-24.4,24.4-24.4s24.4,10.9,24.4,24.4v215.4h102.7v-89.2c0-13.5,10.9-24.4,24.4-24.4
		H343c13.5,0,24.4,10.9,24.4,24.4v89.2h105.8V320.2c0-13.5,10.9-24.4,24.4-24.4s24.4,10.9,24.4,24.4v249.3
		C522,583,511.1,593.9,497.6,593.9z"/>
</g>
</svg>
